<?xml version="1.0" encoding="utf-8"?>
<!-- Generator: Adobe Illustrator 21.1.0, SVG Export Plug-In . SVG Version: 6.00 Build 0)  -->
<svg version="1.1" id="Layer_1" xmlns="http://www.w3.org/2000/svg" xmlns:xlink="http://www.w3.org/1999/xlink" x="0px" y="0px"
	 viewBox="0 0 64 64" style="enable-background:new 0 0 64 64;" xml:space="preserve">
<style type="text/css">
	.st0{fill:#ACBDC5;}
	.st1{fill:#597380;}
	.st2{fill:#314A52;}
</style>
<g id="Sunglasses">
	<path class="st0" d="M3,35h24v14H3V35z M61,35H37v14h24V35z"/>
	<path class="st1" d="M4,44v-4.5H0V44c0,6.6,5.4,12,12,12h2c8.8,0,16-7.2,16-16h-4c0,0.8-0.1,1.5-0.2,2.2C25,45.4,18.2,48,10,48
		C6.7,48,4,46.2,4,44z M64,44v-4.5h-4V40c0,4.4-6.3,8-14,8c-3.3,0-6.1-1.5-7.1-3.5C38.3,43.1,38,41.6,38,40h-4c0,8.8,7.2,16,16,16h2
		C58.6,56,64,50.6,64,44z"/>
	<path class="st2" d="M10.6,14.8c0.5-1.7,2.1-2.8,3.8-2.8H20V8h-5.6c-3.5,0-6.6,2.3-7.7,5.6c-1,3.2-1.8,5.8-2.6,8.1
		C1,31.8,0,34.8,0,40h4c0-2.2,1.8-4,4-4h14c1,0,1.9,0.4,2.6,1c0.1,0.1,0.3,0.3,0.4,0.4c0.6,0.7,1,1.6,1,2.6v1c0,2.5-1.3,4.8-3,6.9
		l3.1,2.5c1.9-2.3,3.8-5.5,3.9-9.1c0.3-0.8,1.1-1.4,2-1.4c0.9,0,1.8,0.6,2.1,1.5l0.1,0.2L38,41v-1c0-1,0.4-1.9,1-2.6
		c0.1-0.1,0.2-0.2,0.4-0.4c0.7-0.6,1.6-1,2.7-1h14c2.2,0,4,1.8,4,4v4c0,4.4-3.6,8-8,8v4c6.6,0,12-5.4,12-12v-4c0-5.2-1-8.2-4.2-18.2
		l0,0c-0.7-2.3-1.6-5-2.6-8.1c-1-3.3-4.1-5.6-7.7-5.6H44v4h5.6c1.7,0,3.3,1.1,3.8,2.8c1,3.3,1.9,6,2.7,8.4c1.4,4.3,2.3,7.1,2.9,9.3
		C58,32.2,57,32,56,32H42c-2.3,0-4.4,1-5.8,2.5C34.8,35.7,33.1,36,32,36c-1.1,0-2.8-0.3-4.1-1.5C26.4,33,24.3,32,22,32H8
		c-1,0-2,0.2-2.9,0.6c0.6-2.2,1.5-5.1,2.9-9.3C8.7,20.9,9.6,18.1,10.6,14.8z"/>
</g>
</svg>
